<?xml version="1.0" standalone="no"?>
<!DOCTYPE svg PUBLIC "-//W3C//DTD SVG 1.1//EN" "http://www.w3.org/Graphics/SVG/1.1/DTD/svg11.dtd" >
<svg xmlns="http://www.w3.org/2000/svg">
<metadata></metadata>
<defs>
<font id="kankinregular" horiz-adv-x="1046" >
<font-face units-per-em="2048" ascent="1536" descent="-512" />
<missing-glyph horiz-adv-x="411" />
<glyph horiz-adv-x="2048" />
<glyph horiz-adv-x="2048" />
<glyph unicode="&#xd;" horiz-adv-x="2048" />
<glyph unicode=" "  horiz-adv-x="411" />
<glyph unicode="&#x09;" horiz-adv-x="411" />
<glyph unicode="&#xa0;" horiz-adv-x="411" />
<glyph unicode="!" horiz-adv-x="518" d="M66 1509h364h21l-21 -18l-12 -1061h-322l-10 1059zM76 168q0 49 20.5 87.5t53 58.5t71.5 29t78 0t71.5 -29t53 -58.5t20.5 -87.5t-20.5 -88t-53 -58.5t-71.5 -29t-78 0t-71.5 29.5t-53 58.5t-20.5 87.5z" />
<glyph unicode="&#x22;" horiz-adv-x="712" d="M39 965v544h266v-544h-266zM416 965v544h262v-544h-262z" />
<glyph unicode="&#x26;" horiz-adv-x="1024" d="M63 385v141q0 90 22 149.5t89 106.5q-50 41 -67 95.5t-17 134.5v123q0 199 138 312q113 93 267.5 92t259.5 -94q129 -114 117 -315h-292q5 62 -39.5 86.5t-91 -0.5t-46.5 -81v-156q0 -26 20 -45t46 -19h537v-288h-107v-357q-37 -128 -141 -206.5t-256 -77.5 q-200 0 -319.5 105.5t-119.5 293.5zM393 389q0 -38 38 -63.5t90 -23.5t87 36v287h-145q-28 0 -49 -22t-21 -50v-164z" />
<glyph unicode="'" horiz-adv-x="360" d="M39 965v544h266v-544h-266z" />
<glyph unicode="(" horiz-adv-x="538" d="M92 664q0 463 121 872h328q-140 -370 -140 -872q0 -419 105 -768h-322q-92 363 -92 768z" />
<glyph unicode=")" horiz-adv-x="542" d="M16 1536h322q121 -409 121 -872q0 -405 -92 -768h-316q105 349 105 768q0 502 -140 872z" />
<glyph unicode="+" horiz-adv-x="954" d="M193 489v220h188v188h217v-188h188v-220h-188v-188h-217v188h-188z" />
<glyph unicode="," horiz-adv-x="428" d="M25 168q0 50 20.5 89t53 59t71.5 29.5t78 0t71.5 -29.5t53 -59t20.5 -89q0 -68 -117 -367h-184l33 205q-100 47 -100 162z" />
<glyph unicode="-" horiz-adv-x="727" d="M43 475v307h594v-307h-594z" />
<glyph unicode="." horiz-adv-x="567" d="M80 176q0 51 21 90.5t54 60t73 30t80.5 0t73.5 -30t54 -60t21 -90.5q0 -59 -28 -102.5t-70 -63t-90.5 -19.5t-90.5 20t-70 63t-28 102z" />
<glyph unicode="/" horiz-adv-x="878" d="M68 2l395 1507h313l-399 -1507h-309z" />
<glyph unicode="0" horiz-adv-x="1030" d="M86 377v756q0 79 27.5 150t79.5 127.5t135.5 90t187.5 33.5q114 0 199.5 -33t134.5 -90.5t72.5 -127t23.5 -150.5v-756q0 -79 -27.5 -149.5t-79 -126.5t-135 -88.5t-186.5 -32.5q-107 0 -191.5 32.5t-136 88.5t-78 126.5t-26.5 149.5zM420 377q0 -49 49.5 -69.5t99 -0.5 t49.5 70v756q0 46 -49.5 65.5t-99 0.5t-49.5 -66v-756z" />
<glyph unicode="1" horiz-adv-x="671" d="M41 1509h528h19l-19 -18v-1473l19 -18h-19h-57h-223h-58h-20l20 18v1153h-172v320z" />
<glyph unicode="2" horiz-adv-x="987" d="M66 0l20 18v310l479 800q-1 55 -47 74q-44 18 -82 -13q-39 -32 -39 -97h-311q0 66 11 125.5t40 118.5t74 101t117 68.5t164 26.5q91 0 165.5 -26t132.5 -80.5t85 -150t14 -222.5l-451 -731h477v-306l19 -16h-868z" />
<glyph unicode="3" horiz-adv-x="970" d="M63 410h299q0 -58 46 -85.5t91.5 -7t45.5 79.5v193q0 27 -21 46t-49 19h-158v170l166 357h-356l-18 -19v367l18 -19h788l-258 -608q113 -27 165 -111.5t52 -265.5v-129q0 -81 -23 -152.5t-70 -130t-126 -92.5t-182 -34q-110 0 -190.5 31.5t-127.5 90t-69.5 133 t-22.5 167.5z" />
<glyph unicode="4" horiz-adv-x="1085" d="M70 268v373l467 868h370l-18 -18v-903h149l-18 -19v-303h-131v-248l18 -18h-366l18 18v250h-489zM381 588h201v395l-201 -393v-2z" />
<glyph unicode="5" horiz-adv-x="940" d="M74 391h319q0 -29 20.5 -49t57.5 -20q33 0 51.5 20.5t18.5 48.5v230q0 27 -19.5 46t-46.5 19h-256l-115 145v658l-18 18h2v2h760l-21 -18v-311h-407v-164h55q81 0 149 -20t123.5 -61.5t87 -113.5t31.5 -168v-272q0 -85 -21 -153t-66.5 -122.5t-124.5 -84t-187 -29.5 q-96 0 -172.5 33.5t-123.5 89.5t-72 127t-25 149z" />
<glyph unicode="6" horiz-adv-x="980" d="M86 393v756q0 70 28 137.5t78 121.5t127.5 87t169.5 33q388 0 388 -412h-308q0 39 -23 61t-50.5 22t-50.5 -22t-23 -61v-155q131 37 236.5 7.5t172 -116t66.5 -199.5v-282h-2q-4 -77 -30 -144t-74 -121.5t-126 -86t-176 -31.5q-118 0 -211.5 58t-142.5 150t-49 197z M418 393q0 -28 21 -46.5t50 -18.5h5q27 0 49 19t22 46v230q0 26 -20.5 44.5t-48.5 18.5h-7q-29 0 -50 -18.5t-21 -44.5v-230z" />
<glyph unicode="7" horiz-adv-x="874" d="M33 1509h835l-399 -1491l20 -18h-376l18 18l326 1170h-406v303z" />
<glyph unicode="8" horiz-adv-x="1001" d="M86 383v109q0 46 12 91.5t28.5 77.5t33.5 58t29 39l12 12q-57 43 -86 117t-29 149v51v70q0 156 114 265.5t302 109.5q176 0 296 -109t120 -266v-70v-51q0 -159 -113 -272q5 -4 12.5 -11t27 -32.5t34.5 -55t27 -76.5t12 -97v-109q0 -105 -50 -197.5t-138 -149t-193 -56.5 h-70q-155 0 -268 121.5t-113 281.5zM420 383q0 -32 26.5 -51t59.5 -19q35 0 56 19.5t24 50.5v184q0 30 -26 47t-57 17.5t-57 -17t-26 -47.5v-184zM420 942q0 -26 24 -45.5t52 -19.5h6q29 0 53.5 19.5t24.5 45.5v184q0 26 -24.5 46t-51.5 20h-6q-27 0 -52.5 -20.5 t-25.5 -45.5v-184z" />
<glyph unicode="9" horiz-adv-x="980" d="M86 862v283h2q4 77 30 144t74 121.5t126 86t176 31.5q118 0 211.5 -58t142.5 -150.5t49 -197.5v-755q0 -70 -28 -137.5t-78 -121.5t-127.5 -87t-169.5 -33q-388 0 -388 411h302q0 -46 24 -72t52.5 -26.5t52.5 26t24 72.5v156q-131 -37 -236.5 -8t-172 115.5t-66.5 199.5z M418 893q0 -26 20.5 -45t48.5 -19h7q29 0 50 19t21 45v229q0 28 -21 47t-50 19h-5q-27 0 -49 -19.5t-22 -46.5v-229z" />
<glyph unicode=":" horiz-adv-x="505" d="M53 176q0 51 21 90.5t54 60t73 30t80.5 0t73.5 -30t54 -60t21 -90.5q0 -59 -28 -102.5t-70 -63t-90.5 -19.5t-90.5 20t-70 63t-28 102zM53 809q0 51 21 90.5t54 60t73 30t80.5 0t73.5 -30t54 -60t21 -90.5q0 -59 -28 -102.5t-70 -63t-90.5 -19.5t-90.5 20t-70 63t-28 102 z" />
<glyph unicode=";" horiz-adv-x="493" d="M45 809q0 51 21 90.5t54 60t73 30t80.5 0t73.5 -30t54 -60t21 -90.5q0 -59 -28 -102.5t-70 -63t-90.5 -19.5t-90.5 20t-70 63t-28 102zM53 168q0 50 20.5 89t53 59t71.5 29.5t78.5 0t72 -29.5t53 -59t20.5 -89q0 -68 -117 -367h-184l33 205q-101 48 -101 162z" />
<glyph unicode="=" horiz-adv-x="684" d="M27 399v242h594v-242h-594zM27 721v235h594v-235h-594z" />
<glyph unicode="?" horiz-adv-x="888" d="M35 1438q23 15 68 34t116 37.5t143.5 26t153.5 -8.5t143 -59q69 -46 121 -148t58 -247q3 -83 -19 -151.5t-49.5 -107.5t-80 -75t-77.5 -47t-75 -30q-5 -2 -7 -3q-4 -2 -22 -8l-21 -8l-2 -2q-4 -29 0 -100v-6v-95h-319v95q-4 96 6 159t39.5 106t69.5 69t108 53q10 2 25 10 q55 21 82.5 73t18.5 104.5t-50 76.5q-47 34 -142.5 24t-191.5 -59zM139 176q0 59 28 102t70 62.5t90.5 19.5t90.5 -19.5t70 -62.5t28 -102t-28 -102.5t-70 -63t-90.5 -19.5t-90.5 20t-70 63t-28 102z" />
<glyph unicode="A" horiz-adv-x="1161" d="M6 0l23 18l372 1473l-18 18h389l-20 -18l378 -1473l19 -18h-379l21 18l-60 230h-305l-57 -230l18 -18h-381zM496 557h163l-79 479h-5z" />
<glyph unicode="B" horiz-adv-x="1054" d="M82 0l18 18v1475l-18 18h498q175 0 284 -103.5t109 -264.5q0 -81 -36 -161.5t-120 -133.5q154 -56 154 -248v-207q0 -199 -95.5 -296t-289.5 -97h-504zM430 313h148q26 0 44.5 19t18.5 45v209q-1 26 -19.5 43.5t-43.5 17.5h-148v-334zM430 985h154q35 9 54 63 q10 28 10 56q0 24 -8 48q-17 50 -69 50h-141v-217z" />
<glyph unicode="C" horiz-adv-x="921" d="M102 393v723q0 164 116 279.5t280 115.5h333v-329h-333q-28 0 -47 -19t-19 -47v-723q0 -26 19 -44.5t47 -18.5h350v-330h-350q-164 0 -280 115t-116 278z" />
<glyph unicode="D" horiz-adv-x="1069" d="M84 0l18 18v1475l-18 18h491q170 0 282 -105t112 -290v-723q0 -194 -110.5 -293.5t-283.5 -99.5h-491zM432 330h143q26 0 45 18.5t19 44.5v723q0 28 -19 47t-45 19h-143v-852z" />
<glyph unicode="E" horiz-adv-x="897" d="M84 0l18 18v1493h678l17 19v-367l-19 19h-346v-260h318l18 18v-369l-18 21h-318v-262h377l18 18v-366l-18 18h-725z" />
<glyph unicode="F" horiz-adv-x="880" d="M84 0l18 18v1493h684l19 19v-367l-19 19h-354v-264h313l19 18v-363l-19 19h-313v-574l19 -18h-367z" />
<glyph unicode="G" horiz-adv-x="1015" d="M86 385v731q0 85 21 154.5t65.5 126t122.5 88t184 31.5h371v-320h-371q-32 0 -47.5 -24.5t-15.5 -55.5v-727q0 -38 38 -63q35 -24 83 -24h7q52 2 87 36v321h-117v291h418v-680q-36 -127 -146 -206q-108 -78 -258 -78h-4q-200 0 -319 105.5t-119 293.5z" />
<glyph unicode="H" horiz-adv-x="1103" d="M86 0l18 18v1477l-18 16h367l-19 -18v-522h236v524l-17 16h367l-19 -18h-2v-1475l19 -18h-367l19 18v623h-236v-623l19 -18h-367z" />
<glyph unicode="I" horiz-adv-x="544" d="M86 0l20 18v1475l-20 18h375l-21 -18v-1475l21 -18h-375z" />
<glyph unicode="J" horiz-adv-x="1062" d="M35 543h354l-18 -19l2 -131q1 -31 27.5 -52t64.5 -25q17 -2 34 -2q21 0 41 3q38 5 64.5 25.5t26.5 50.5v1100l-19 18h367l-18 -18v-1100q0 -81 -25.5 -151.5t-77 -129t-140.5 -92.5t-206 -34q-101 0 -181 22.5t-131.5 60.5t-85 91.5t-47.5 110.5t-14 122v131z" />
<glyph unicode="K" horiz-adv-x="1220" d="M86 0l20 18v1475l-20 18h369l-19 -18v-582h68l254 582h-2l-19 18h396l-19 -18l-354 -735l203 -400q31 -61 85 -72q13 -3 25 -3q41 0 80 28l104 -284q-91 -45 -196 -45q-60 0 -107 8.5t-98.5 31.5t-96 70t-81.5 117l-158 346h-84v-537l19 -18h-369z" />
<glyph unicode="L" horiz-adv-x="884" d="M86 0l18 16v1495h330v-1181h381v-312l19 -18h-748z" />
<glyph unicode="M" horiz-adv-x="1284" d="M86 0l18 18v1512h21l518 -582l516 580h23v-1510l18 -18h-366l18 18v371l10 367l-219 -244l-221 244l12 -375v-363l19 -18h-367zM104 1530h21h-21z" />
<glyph unicode="N" horiz-adv-x="1130" d="M86 2l18 18v1506h21l590 -762v729l-21 18h353l-21 -18v-1522h-18l-590 678v-629l18 -18h-350z" />
<glyph unicode="O" horiz-adv-x="1138" d="M102 389v739q0 80 28 151t83 129t148 92t212 34q115 0 206 -34t146 -92t83 -129t28 -151v-739q0 -79 -29 -151t-84.5 -130t-146 -92t-203.5 -34q-111 0 -202.5 34.5t-149 92t-88.5 129.5t-31 151zM432 389q0 -49 43 -76t94.5 -27t94.5 27.5t43 75.5v739q0 35 -28.5 58.5 t-68.5 29.5q-19 3 -38 2q-20 0 -42 -3q-40 -6 -69 -29.5t-29 -57.5v-739z" />
<glyph unicode="P" horiz-adv-x="1034" d="M86 0l18 18v1475l-18 18h479q84 0 153.5 -22t124 -67t85 -122.5t30.5 -181.5v-315q0 -184 -111.5 -285.5t-281.5 -101.5h-131v-398l19 -18h-367zM434 723h131q27 0 45.5 18.5t18.5 46.5v353q0 26 -19 44.5t-45 18.5h-131v-481z" />
<glyph unicode="Q" horiz-adv-x="1191" d="M86 401v727q0 80 28 151t83 129t148 92t212 34q115 0 206 -34t146 -92t83 -129t28 -151v-716l221 -181l-190 -249l-158 131q-60 -58 -134 -91.5t-198 -33.5q-228 0 -351.5 114t-123.5 299zM416 410q2 -58 40 -92q38 -33 91 -33q1 0 2 1q54 0 113 23l-246 170v-69z M416 868l274 -192v452q0 34 -28 57t-68 28q-19 2 -37 2l-45 -3q-40 -6 -68 -28.5t-28 -55.5v-260z" />
<glyph unicode="R" horiz-adv-x="1075" d="M86 0l18 18v1475l-18 18h514q112 0 199 -40t141.5 -127t54.5 -211v-299q0 -208 -155 -293l200 -523l19 -18h-387l20 18l-141 445h-117v-445l21 -18h-369zM434 764h166q28 0 47 18.5t19 44.5v306q0 26 -19 44.5t-47 18.5h-166v-432z" />
<glyph unicode="S" horiz-adv-x="964" d="M53 100l101 322q30 -13 44 -18.5t47 -19t52.5 -19t52 -15t53.5 -10.5t48.5 -2.5t46 6t36.5 19t30 32t18 47.5q2 9 2 17q0 25 -19 49q-25 30 -72 56t-105.5 54t-118 68.5t-108.5 90.5q-49 51 -78 129q-26 71 -26 157v18q3 100 38.5 181t93.5 133t135.5 83.5t163.5 37.5 q23 2 47 2q65 0 133 -12q93 -16 182 -56l-107 -295q-31 14 -71 24q-40 9 -88 13q-15 1 -29 2q-31 0 -59 -6q-40 -8 -70.5 -36.5t-36.5 -76.5q-1 -8 -1 -15q0 -82 122 -138q64 -22 116.5 -47t109.5 -65.5t95 -88.5q37 -48 61 -116q21 -60 21 -130v-18q-10 -256 -184 -379 q-95 -66 -221 -80q-40 -4 -79 -5q-84 0 -162 20q-115 29 -214 87z" />
<glyph unicode="T" horiz-adv-x="976" d="M37 1194v317h905v-317h-285v-1176l19 -18h-367l19 18v1176h-291z" />
<glyph unicode="U" horiz-adv-x="1146" d="M86 1511h381l-21 -20v2v-1087q0 -45 40 -71t88 -26t88 25.5t40 71.5v1087v-2l-20 20h381l-21 -20v-1085q0 -100 -37 -180t-101 -130.5t-147 -77t-179 -26.5q-90 0 -173.5 27t-150.5 77t-107.5 130.5t-40.5 179.5v1087l-2 -2z" />
<glyph unicode="V" horiz-adv-x="1150" d="M6 1509h379l-20 -18l112 -438l98 -580h5l96 580l110 438l-18 18h381l-23 -18l-372 -1473l18 -18h-389l20 18l-378 1473z" />
<glyph unicode="W" horiz-adv-x="1720" d="M6 1511h412l-21 -18l217 -901l101 524l-92 377l-19 18h369l-17 -18l107 -438l100 -463l97 469l108 432l-20 18h370l-18 -18l-371 -1475l21 -18h-367l18 18l-120 455l-115 -455l18 -18h-372l20 18l-407 1475z" />
<glyph unicode="X" horiz-adv-x="1114" d="M6 0l21 18l350 736l-350 739l-21 18h402l-21 -18l82 -170l90 -254l88 250l84 174l-18 18h399l-18 -18l-353 -739l353 -736l18 -18h-403l20 18l-78 162l-92 264l-96 -272l-72 -154l19 -18h-404z" />
<glyph unicode="Y" horiz-adv-x="1114" d="M6 1511h400l-19 -18l90 -231l82 -291l84 297l88 225l-18 18h399l-18 -18l-369 -905v-570l18 -18h-368l20 18v570l-370 905z" />
<glyph unicode="Z" horiz-adv-x="966" d="M20 0l467 1182h-428v329h859l-426 -1181h426v-330h-898z" />
<glyph unicode="`" horiz-adv-x="620" d="M90 1511v15l285 67l139 -305v-12h-274z" />
<glyph unicode="a" horiz-adv-x="1028" d="M61 381q0 82 26 152t76 125t132.5 86.5t187.5 31.5h117q0 54 -21.5 72t-68.5 18h-307l-25 -16v340l29 -12h330q179 0 284 -94.5t105 -290.5v-791h-25l-205 129q-30 -43 -70 -72t-80.5 -42t-71 -18t-58.5 -5q-166 0 -260.5 111t-94.5 276zM365 410q0 -31 14 -54.5 t51 -37.5q14 -5 31 -4q29 0 69 14l82 55v121h-131q-49 0 -82.5 -26t-33.5 -68z" />
<glyph unicode="b" horiz-adv-x="1040" d="M80 0l20 18v1465l-18 24h367l-19 -26v-299h133h4q191 0 285 -104q96 -104 96 -290v-393q0 -209 -100.5 -302t-292.5 -93h-475zM428 313h131q26 0 45 19t19 47v424q0 26 -19 44.5t-45 18.5h-131v-553z" />
<glyph unicode="c" horiz-adv-x="835" d="M90 375v430q0 163 109.5 270t273.5 107h229l29 14v-342l-26 12h-226q-26 0 -44.5 -18.5t-18.5 -46.5v-424q0 -26 18.5 -45t44.5 -19h246l27 13v-340l-29 14h-244q-389 0 -389 375z" />
<glyph unicode="d" horiz-adv-x="1030" d="M86 395v393q0 186 96 290q95 104 285 104h4h127v299l-18 26h366l-18 -24v-1483h-25l-209 115q-116 -121 -276 -121q-150 0 -241 106.5t-91 294.5zM412 379q0 -31 20 -49q19 -17 43 -17l1 1q26 0 50 8h4l72 51v497h-127q-26 0 -44.5 -19.5t-18.5 -45.5v-426z" />
<glyph unicode="e" horiz-adv-x="1003" d="M86 389v395q0 85 22.5 154.5t70.5 126t134 88t203 31.5q193 0 297.5 -95.5t104.5 -283.5q0 -75 -28.5 -135t-60.5 -95t-106.5 -71t-113.5 -49t-135 -42q-16 -5 -24.5 -7.5t-22 -7t-24.5 -7.5q0 -43 33.5 -68t73.5 -27h5q38 0 71 22q35 24 37 67h297q0 -391 -408 -391 q-200 0 -313 104.5t-113 290.5zM403 692q91 16 138 33t60 33.5t13 42.5q0 30 -22 50q-20 21 -52 25q-16 2 -32 2t-31 -2q-31 -4 -52.5 -23t-21.5 -46v-115z" />
<glyph unicode="f" horiz-adv-x="761" d="M76 0l22 20v1256q75 142 173.5 199t228.5 57h186l29 14v-346l-27 17h-168q-32 1 -57.5 -13.5t-34.5 -38.5v-198h199l22 18v-354l-22 20h-199v-626l23 -25h-375z" />
<glyph unicode="g" horiz-adv-x="1034" d="M86 389v391q0 181 112.5 290.5t280.5 109.5h60q114 0 229 -82l141 82h25v-1456q-134 -234 -381 -234q-128 0 -236 37.5t-229 144.5l166 244q64 -53 124.5 -80.5t105.5 -28.5h10q38 0 64 6q30 7 50 21l2 166l-131 -2q-171 0 -282 102t-111 289zM414 377q0 -27 19 -45.5 t46 -18.5h131v553h-131q-28 0 -46.5 -18.5t-18.5 -46.5v-424z" />
<glyph unicode="h" horiz-adv-x="1040" d="M80 0l22 20v1463l-18 24h367l-19 -26v-299h123h4q191 0 285 -104q96 -104 96 -290v-768l23 -20h-369l20 18v785q0 26 -18.5 44.5t-44.5 18.5h-121v-846l19 -20h-369z" />
<glyph unicode="i" horiz-adv-x="536" d="M70 1384q0 49 21 87t55 57.5t75 29.5q20 5 40.5 4.5t40.5 -4.5q40 -10 74.5 -29.5t55.5 -57.5t21 -87q0 -56 -28.5 -96.5t-71 -59t-92 -18.5t-92 18.5t-71 59t-28.5 96.5zM82 0l18 18v1108l-18 19h371l-19 -19v-1108l19 -18h-371z" />
<glyph unicode="j" horiz-adv-x="542" d="M-78 -145l27 -17h67q32 -1 58 13t35 38v1237l-19 19h371l-19 -19v-1347q-75 -142 -173 -199t-228 -57h-90l-29 -15v347zM76 1384q0 49 21 87t55 57.5t75 29.5q21 4 41 4t40 -4q41 -10 75 -29.5t55 -57.5t21 -87q0 -56 -28.5 -96.5t-71 -59t-92 -18.5t-92 18.5t-71 59 t-28.5 96.5z" />
<glyph unicode="k" horiz-adv-x="1026" d="M86 0l18 18v1461l-18 18h367l-19 -18v-705h33l184 404h367l-279 -584l281 -594h-361l-200 444h-25v-426l19 -18h-367z" />
<glyph unicode="l" horiz-adv-x="542" d="M86 0l18 23v1529l-18 27h371l-19 -27v-1527l21 -25h-373z" />
<glyph unicode="m" horiz-adv-x="1572" d="M86 0l18 18v1164h25l141 -95q100 95 248 95q158 0 268 -107q118 109 287 109q173 0 285 -100.5t112 -280.5v-785l19 -18h-367l19 18v789q0 31 -29.5 49t-65 18t-65 -18t-29.5 -49v-789l19 -18h-367l19 18v789q0 30 -29.5 48t-65 18t-65 -17.5t-29.5 -48.5v-789l19 -18 h-367z" />
<glyph unicode="n" d="M82 0l18 18v1164h17l147 -82q63 43 118.5 62.5t143.5 19.5q194 0 306 -94.5t112 -301.5v-768l21 -18h-367l20 16v783q0 43 -48 61q-24 9 -47 9l-47 -9q-48 -18 -48 -61v-781l18 -18h-364z" />
<glyph unicode="o" horiz-adv-x="1017" d="M86 387v406q0 188 116.5 291.5t307.5 103.5t307.5 -103.5t116.5 -291.5v-406q0 -187 -116.5 -292t-305.5 -105q-192 0 -309 105t-117 292zM412 387q0 -29 20 -49t48 -24q14 -2 29 -2l29 2q28 4 49 24t23 49v410q0 47 -50 67q-25 10 -49 9l-49 -9q-50 -20 -50 -67v-410z " />
<glyph unicode="p" horiz-adv-x="1038" d="M82 -510l22 27v1665l162 -80q60 44 116 64t144 20q188 0 305 -107.5t117 -294.5v-391q0 -112 -30.5 -190t-89.5 -121t-132.5 -61.5t-171.5 -18.5q-52 0 -92 4v-489l23 -27h-373zM432 317h123q28 0 47 19t19 45v377q0 40 -18.5 69.5t-60.5 42.5q-13 3 -28 3q-35 0 -82 -19 v-537z" />
<glyph unicode="q" horiz-adv-x="1038" d="M90 393v391q0 187 117 294.5t305 107.5q88 0 144 -20t116 -64l162 80v-1665l22 -27h-372l22 27v489q-40 -4 -92 -4q-98 0 -171.5 18.5t-132.5 61.5t-89.5 121t-30.5 190zM418 381q0 -27 19 -45.5t46 -18.5h123v537q-50 19 -85 19q-1 0 -2 -1q-36 0 -58.5 -18.5 t-32.5 -42.5t-10 -53v-377z" />
<glyph unicode="r" horiz-adv-x="849" d="M82 0l18 18v1162h17l135 -90q89 94 248 94q142 0 286 -101l84 -71l-182 -250q-50 48 -93 73t-75 25.5t-51.5 -6t-40.5 -20.5v-816l18 -18h-364zM100 1180h17h-17z" />
<glyph unicode="s" horiz-adv-x="851" d="M43 76l98 311q58 -30 153.5 -53t162.5 -23q15 26 15 57q0 13 -3 27q-8 4 -47.5 21t-64 28.5t-67 35.5t-70.5 46.5t-61.5 57.5t-52 71t-28.5 85q-7 33 -8 68q0 17 2 34q11 116 59.5 188t112.5 107q62 38 144 48q33 4 66 4q48 -1 92 -9q76 -14 125.5 -29t86.5 -31 l-127 -303q-36 13 -107.5 29t-107.5 16q-10 1 -21.5 -18.5t-13.5 -40.5t10 -33q118 -46 152 -64q257 -128 257 -335q0 -9 -1 -19q-6 -103 -42.5 -178.5t-96.5 -115.5q-59 -42 -130 -58q-52 -12 -110 -12q-21 0 -43 2q-198 14 -334 86z" />
<glyph unicode="t" horiz-adv-x="761" d="M39 856v350l22 -20h111v338l-22 20h366l-22 -24v-334h165l23 20v-350l-23 18h-165v-512q9 -24 34.5 -38t57.5 -13h90l26 17v-346l-28 14h-109q-67 0 -120 10t-107.5 35.5t-96.5 78.5t-69 132v622h-111z" />
<glyph unicode="u" d="M80 1180h366l-20 -17v-782q0 -43 48 -61q24 -9 47 -9l47 9q48 18 48 61v780l-18 19h365l-19 -19v-1163h-16l-148 82q-63 -43 -118.5 -62.5t-143.5 -19.5q-94 0 -168 21.5t-131 66.5t-88 123t-31 184v768z" />
<glyph unicode="v" horiz-adv-x="995" d="M-8 1180h385l-21 -23l70 -242q11 -62 32.5 -187t33.5 -187h6l63 374l70 242l-21 23h387l-26 -23l-348 -1134l20 -23h-297l19 20l-349 1137z" />
<glyph unicode="w" horiz-adv-x="1341" d="M-8 1180h377l-19 -19l156 -641l49 223l-90 418l-19 19h375l-18 -19l41 -219l61 -352h8l33 350l41 221l-18 19h374l-18 -17l-246 -1145l19 -18h-342l20 18l-94 318l-90 -318l20 -18h-338l19 18l-283 1143z" />
<glyph unicode="x" horiz-adv-x="944" d="M-8 0l276 590l-250 590h349l49 -136l53 -186l55 186l49 136h349l-252 -590l276 -590h-350l-59 137l-68 197l-72 -205l-55 -129h-350z" />
<glyph unicode="y" horiz-adv-x="1056" d="M86 1180h365l-19 -17v-786q0 -26 19 -45t47 -19h131v848l-19 19h363l-21 -17v-1439q-134 -234 -381 -234q-128 0 -236 37.5t-229 144.5l166 244q64 -53 124.5 -80.5t105.5 -28.5h11q38 0 64 6q30 7 50 21l2 166l-131 -2q-392 0 -392 389v774z" />
<glyph unicode="z" horiz-adv-x="897" d="M2 0l420 868h-322l-24 -16v340l26 -12h742v-45l-385 -824h360l23 17v-340l-27 12h-813z" />
<glyph unicode="&#xa1;" horiz-adv-x="505" d="M41 -317l20 18l13 1061h321l11 -1059l20 -20h-365h-20zM47 1024q0 49 20.5 88t53 58.5t71.5 29t78.5 0t72 -29.5t53 -58.5t20.5 -87.5t-20.5 -87.5t-53 -58.5t-71.5 -29t-78.5 0t-72 29t-53 58.5t-20.5 87.5z" />
<glyph unicode="&#xa8;" horiz-adv-x="968" d="M90 1462q0 52 24.5 90.5t62 56t80.5 17.5t80.5 -17.5t62 -56t24.5 -90.5q0 -45 -18.5 -81t-48 -54t-65 -26.5t-71 0t-65 27t-48 54t-18.5 80.5zM549 1462q0 52 25 90.5t62 56t81 17.5t81 -17.5t62 -56t25 -90.5q0 -53 -25 -91.5t-62 -56t-81 -17t-81 18t-62 56t-25 90.5z " />
<glyph unicode="&#xad;" horiz-adv-x="727" d="M43 475v307h594v-307h-594z" />
<glyph unicode="&#xaf;" horiz-adv-x="788" d="M131 1616v280h510v-280h-510z" />
<glyph unicode="&#xb4;" horiz-adv-x="620" d="M88 1276v12l139 305l285 -67v-15l-150 -235h-274z" />
<glyph unicode="&#xb8;" horiz-adv-x="802" d="M147 -438l21 188q26 -18 60.5 -27t64 -2t37.5 33q11 41 -14.5 61.5t-67.5 20.5l53 197h225l-34 -139q52 -8 84.5 -33.5t44 -61t10.5 -72.5t-13 -75q-21 -69 -76 -108t-123 -44.5t-140 11t-132 51.5z" />
<glyph unicode="&#xbf;" horiz-adv-x="905" d="M53 133q-3 83 19 151.5t49.5 107.5t80 75t77.5 47t74 30q5 2 7 3t23 8l20 8l3 2q4 29 0 101v6v94h319v-94q4 -96 -6 -159t-39.5 -106t-69.5 -69t-108 -53q-6 -1 -25 -11q-55 -21 -82.5 -73t-18.5 -104.5t50 -76.5q47 -34 142.5 -24t191.5 59l96 -286q-23 -15 -68 -34 t-116 -38t-144 -26t-154 8.5t-143 58.5q-68 45 -120 147.5t-58 247.5zM375 1030q0 51 21 91t54 60.5t73.5 30t80.5 0t73 -30.5t54 -60.5t21 -90.5t-21 -90.5t-54 -60t-73 -30t-80.5 0t-73.5 30t-54 60t-21 90.5z" />
<glyph unicode="&#xc0;" horiz-adv-x="1161" d="M6 0l23 18l372 1473l-18 18h389l-20 -18l378 -1473l19 -18h-379l21 18l-60 230h-305l-57 -230l18 -18h-381zM303 1845v15l285 67l139 -305v-12h-274zM496 557h163l-79 479h-5z" />
<glyph unicode="&#xc1;" horiz-adv-x="1161" d="M6 0l23 18l372 1473l-18 18h389l-20 -18l378 -1473l19 -18h-379l21 18l-60 230h-305l-57 -230l18 -18h-381zM428 1608v12l139 305l285 -67v-15l-150 -235h-274zM496 557h163l-79 479h-5z" />
<glyph unicode="&#xc2;" horiz-adv-x="1161" d="M6 0l23 18l372 1473l-18 18h389l-20 -18l378 -1473l19 -18h-379l21 18l-60 230h-305l-57 -230l18 -18h-381zM221 1606v12l234 272h247l232 -272v-12h-275l-79 90l-78 -90h-281zM496 557h163l-79 479h-5z" />
<glyph unicode="&#xc3;" horiz-adv-x="1161" d="M6 0l23 18l372 1473l-18 18h389l-20 -18l378 -1473l19 -18h-379l21 18l-60 230h-305l-57 -230l18 -18h-381zM270 1673q22 149 107.5 206.5t218.5 4.5q5 -2 23.5 -9.5t27 -10t24.5 -7t25 -2.5t20 7t17.5 17.5t9.5 31.5l154 -66q-11 -136 -98 -201t-205 -18q-6 2 -22.5 9.5 t-25 10.5t-25 8t-26 6t-23 -0.5t-21.5 -7.5t-16 -17.5t-13 -28.5q-22 9 -74.5 33t-77.5 34zM496 557h163l-79 479h-5z" />
<glyph unicode="&#xc4;" horiz-adv-x="1161" d="M6 0l23 18l372 1473l-18 18h389l-20 -18l378 -1473l19 -18h-379l21 18l-60 230h-305l-57 -230l18 -18h-381zM201 1741q0 43 17.5 76t45 50.5t61 25.5t66.5 0t60.5 -25.5t45 -50.5t17.5 -76t-17.5 -76.5t-45 -51t-60.5 -25.5t-66.5 0.5t-61 25.5t-45 50.5t-17.5 76.5z M496 557h163l-79 479h-5zM633 1741q0 49 23.5 85.5t58.5 53t76.5 16.5t76.5 -16.5t58.5 -53t23.5 -85.5q0 -50 -23.5 -86.5t-58.5 -53t-76.5 -16t-76.5 17t-58.5 53t-23.5 85.5z" />
<glyph unicode="&#xc5;" horiz-adv-x="1161" d="M6 0l23 18l372 1473l-18 18h2q-80 70 -80 187q0 61 23.5 110.5t62 80t88 47t101 16.5t101 -16.5t88 -47t62 -80t23.5 -110.5q0 -133 -102 -205l378 -1473l19 -18h-379l21 18l-60 230h-305l-57 -230l18 -18h-381zM496 557h163l-79 479h-5zM508 1679q0 -30 22.5 -47.5 t49 -17.5t49 17.5t22.5 47.5t-22.5 47.5t-49 17.5t-49 -17.5t-22.5 -47.5z" />
<glyph unicode="&#xc6;" horiz-adv-x="1445" d="M4 0l23 18l530 1475l-18 18h798l17 19v-367l-19 19h-307v-260h279l18 18v-369l-18 21h-279v-262h338l18 18v-366l-18 18h-653l18 18v230h-282l-82 -230l18 -18h-381zM532 557h199v621h-10l-96 -361z" />
<glyph unicode="&#xc7;" horiz-adv-x="921" d="M102 393v723q0 164 116 279.5t280 115.5h333v-329h-333q-28 0 -47 -19t-19 -47v-723q0 -26 19 -44.5t47 -18.5h350v-330h-172l-23 -96q52 -8 85 -33.5t44 -61t10.5 -72.5t-12.5 -75q-21 -69 -76 -108t-123 -44.5t-140 11t-132 51.5l21 188q26 -18 60.5 -27t64 -2t37.5 33 q11 41 -14.5 61.5t-67.5 20.5l41 156q-149 17 -249 128.5t-100 262.5z" />
<glyph unicode="&#xc8;" horiz-adv-x="897" d="M84 0l18 18v1493h678l17 19v-367l-19 19h-346v-260h318l18 18v-369l-18 21h-318v-262h377l18 18v-366l-18 18h-725zM207 1833v14l285 68l139 -305v-13h-275z" />
<glyph unicode="&#xc9;" horiz-adv-x="897" d="M84 0l18 18v1493h678l17 19v-367l-19 19h-346v-260h318l18 18v-369l-18 21h-318v-262h377l18 18v-366l-18 18h-725zM309 1608v12l140 305l284 -67v-15l-149 -235h-275z" />
<glyph unicode="&#xca;" horiz-adv-x="897" d="M84 0l18 18v1493h678l17 19v-367l-19 19h-346v-260h318l18 18v-369l-18 21h-318v-262h377l18 18v-366l-18 18h-725zM98 1610v12l232 272h248l231 -272v-12h-274l-78 90l-78 -90h-281z" />
<glyph unicode="&#xcb;" horiz-adv-x="897" d="M84 0l18 18v1493h678l17 19v-367l-19 19h-346v-260h318l18 18v-369l-18 21h-318v-262h377l18 18v-366l-18 18h-725zM102 1749q0 43 18 77.5t46 52t62.5 25.5t69 0t62.5 -25.5t46 -52t18 -77.5q0 -44 -18 -78t-46 -52t-62.5 -26t-69 0.5t-62.5 26t-46 52t-18 77.5z M502 1749q0 50 24 87t60 54t77.5 17t77.5 -17t60 -54t24 -87q0 -51 -24 -88t-60 -54t-77.5 -16.5t-77.5 17t-60 54t-24 87.5z" />
<glyph unicode="&#xcc;" horiz-adv-x="544" d="M6 1843v15l285 67l139 -305v-12h-274zM86 0l20 18v1475l-20 18h375l-21 -18v-1475l21 -18h-375z" />
<glyph unicode="&#xcd;" horiz-adv-x="544" d="M86 0l20 18v1475l-20 18h375l-21 -18v-1475l21 -18h-375zM119 1608v12l139 305l285 -67v-15l-150 -235h-274z" />
<glyph unicode="&#xce;" horiz-adv-x="544" d="M-66 1606v16l226 281h239l226 -281v-16h-267l-75 94l-76 -94h-273zM86 0l20 18v1475l-20 18h375l-21 -18v-1475l21 -18h-375z" />
<glyph unicode="&#xcf;" horiz-adv-x="544" d="M-92 1755q0 43 17.5 77.5t45.5 52t62.5 25.5t68.5 0t62 -25.5t45.5 -52t17.5 -77.5q0 -60 -33 -101t-80 -50.5t-93.5 0.5t-79.5 50.5t-33 100.5zM86 0l20 18v1475l-20 18h375l-21 -18v-1475l21 -18h-375zM317 1755q0 43 18 77.5t46 52t62.5 25.5t69 0t62.5 -25.5t46 -52 t18 -77.5t-18 -77t-46 -51.5t-62.5 -26t-69 0t-62.5 26t-46 51.5t-18 77z" />
<glyph unicode="&#xd0;" horiz-adv-x="1069" d="M6 639v281h96v573l-18 18h491q170 0 282 -105t112 -290v-723q0 -194 -110.5 -293.5t-283.5 -99.5h-491l18 18v621h-96zM432 330h143q26 0 45 18.5t19 44.5v723q0 28 -19 47t-45 19h-143v-262h111v-281h-111v-309z" />
<glyph unicode="&#xd1;" horiz-adv-x="1130" d="M86 2l18 18v1506h21l590 -762v729l-21 18h353l-21 -18v-1522h-18l-590 678v-629l18 -18h-350zM236 1686q22 149 107 206t218 4q5 -2 23.5 -9.5t27 -10t24.5 -7t25 -2.5t20 7t18 17.5t10 31.5l153 -65q-11 -136 -98 -201.5t-205 -18.5q-6 2 -22.5 9.5t-25 10.5t-25 8 t-26 6t-23 -0.5t-21.5 -7.5t-16 -17.5t-13 -28.5q-23 9 -74.5 33.5t-76.5 34.5z" />
<glyph unicode="&#xd2;" horiz-adv-x="1138" d="M102 389v739q0 80 28 151t83 129t148 92t212 34q115 0 206 -34t146 -92t83 -129t28 -151v-739q0 -79 -29 -151t-84.5 -130t-146 -92t-203.5 -34q-111 0 -202.5 34.5t-149 92t-88.5 129.5t-31 151zM301 1864v14l285 68l139 -306v-12h-274zM432 389q0 -49 43 -76t94.5 -27 t94.5 27.5t43 75.5v739q0 35 -28.5 58.5t-68.5 29t-80.5 -0.5t-69 -29.5t-28.5 -57.5v-739z" />
<glyph unicode="&#xd3;" horiz-adv-x="1138" d="M102 389v739q0 80 28 151t83 129t148 92t212 34q115 0 206 -34t146 -92t83 -129t28 -151v-739q0 -79 -29 -151t-84.5 -130t-146 -92t-203.5 -34q-111 0 -202.5 34.5t-149 92t-88.5 129.5t-31 151zM418 1622v12l139 305l285 -67v-14l-150 -236h-274zM432 389q0 -49 43 -76 t94.5 -27t94.5 27.5t43 75.5v739q0 35 -28.5 58.5t-68.5 29t-80.5 -0.5t-69 -29.5t-28.5 -57.5v-739z" />
<glyph unicode="&#xd4;" horiz-adv-x="1138" d="M102 389v739q0 80 28 151t83 129t148 92t212 34q115 0 206 -34t146 -92t83 -129t28 -151v-739q0 -79 -29 -151t-84.5 -130t-146 -92t-203.5 -34q-111 0 -202.5 34.5t-149 92t-88.5 129.5t-31 151zM213 1622v16l233 277h248l232 -277v-16h-275l-80 94l-77 -94h-281z M432 389q0 -49 43 -76t94.5 -27t94.5 27.5t43 75.5v739q0 35 -28.5 58.5t-68.5 29t-80.5 -0.5t-69 -29.5t-28.5 -57.5v-739z" />
<glyph unicode="&#xd5;" horiz-adv-x="1138" d="M102 389v739q0 80 28 151t83 129t148 92t212 34q115 0 206 -34t146 -92t83 -129t28 -151v-739q0 -79 -29 -151t-84.5 -130t-146 -92t-203.5 -34q-111 0 -202.5 34.5t-149 92t-88.5 129.5t-31 151zM258 1690q22 149 107.5 206.5t218.5 4.5q6 -2 20.5 -8t23 -9.5t22 -7.5 t22 -4.5t19.5 1.5t18 8t13 17.5t9 28.5l154 -65q-11 -136 -98 -201.5t-205 -18.5q-6 2 -22.5 9.5t-25 10.5t-25 8t-26 6t-23 -0.5t-21.5 -7.5t-16 -17.5t-13 -28.5q-22 9 -74.5 33.5t-77.5 34.5zM432 389q0 -49 43 -76t94.5 -27t94.5 27.5t43 75.5v739q0 35 -28.5 58.5 t-68.5 29t-80.5 -0.5t-69 -29.5t-28.5 -57.5v-739z" />
<glyph unicode="&#xd6;" horiz-adv-x="1138" d="M102 389v739q0 80 28 151t83 129t148 92t212 34q115 0 206 -34t146 -92t83 -129t28 -151v-739q0 -79 -29 -151t-84.5 -130t-146 -92t-203.5 -34q-111 0 -202.5 34.5t-149 92t-88.5 129.5t-31 151zM188 1747q0 43 17.5 77t45.5 51t62 25.5t68 0t62 -25.5t45.5 -51 t17.5 -77q0 -60 -33 -101t-79.5 -50.5t-93 0.5t-79.5 50.5t-33 100.5zM432 389q0 -49 43 -76t94.5 -27t94.5 27.5t43 75.5v739q0 35 -28.5 58.5t-68.5 29t-80.5 -0.5t-69 -29.5t-28.5 -57.5v-739zM627 1747q0 50 23.5 86.5t59 53t77 16.5t77 -16.5t59 -53t23.5 -86.5 q0 -60 -33 -101t-79.5 -50.5t-93.5 0.5t-80 50.5t-33 100.5z" />
<glyph unicode="&#xd8;" horiz-adv-x="1138" d="M92 -92l101 231q-91 111 -91 250v739q0 80 28 151t83 129t148 92t212 34q116 0 211 -37l54 123h235l-112 -254q75 -103 75 -238v-739q0 -79 -29 -151t-84.5 -130t-146 -92t-203.5 -34q-118 0 -202 34l-47 -108h-232zM432 688l223 512q-30 14 -68.5 17t-73 -5.5t-58 -30.5 t-23.5 -53v-440zM496 301q43 -15 90 -13.5t84 29.5t37 72v393z" />
<glyph unicode="&#xd9;" horiz-adv-x="1146" d="M86 1511h381l-21 -20v2v-1087q0 -45 40 -71t88 -26t88 25.5t40 71.5v1087v-2l-20 20h381l-21 -20v-1085q0 -100 -37 -180t-101 -130.5t-147 -77t-179 -26.5q-90 0 -173.5 27t-150.5 77t-107.5 130.5t-40.5 179.5v1087l-2 -2zM301 1843v15l285 67l139 -305v-12h-274z" />
<glyph unicode="&#xda;" horiz-adv-x="1146" d="M86 1511h381l-21 -20v2v-1087q0 -45 40 -71t88 -26t88 25.5t40 71.5v1087v-2l-20 20h381l-21 -20v-1085q0 -100 -37 -180t-101 -130.5t-147 -77t-179 -26.5q-90 0 -173.5 27t-150.5 77t-107.5 130.5t-40.5 179.5v1087l-2 -2zM436 1608v12l139 305l285 -67v-15l-149 -235 h-275z" />
<glyph unicode="&#xdb;" horiz-adv-x="1146" d="M86 1511h381l-21 -20v2v-1087q0 -45 40 -71t88 -26t88 25.5t40 71.5v1087v-2l-20 20h381l-21 -20v-1085q0 -100 -37 -180t-101 -130.5t-147 -77t-179 -26.5q-90 0 -173.5 27t-150.5 77t-107.5 130.5t-40.5 179.5v1087l-2 -2zM197 1620v14l245 277h263l245 -277v-14h-291 l-84 92l-81 -92h-297z" />
<glyph unicode="&#xdc;" horiz-adv-x="1146" d="M86 1511h381l-21 -20v2v-1087q0 -45 40 -71t88 -26t88 25.5t40 71.5v1087v-2l-20 20h381l-21 -20v-1085q0 -100 -37 -180t-101 -130.5t-147 -77t-179 -26.5q-90 0 -173.5 27t-150.5 77t-107.5 130.5t-40.5 179.5v1087l-2 -2zM182 1772q0 45 18.5 80.5t48 53.5t65 26.5 t71 0t65 -26.5t48 -53.5t18.5 -80.5q0 -53 -24.5 -91.5t-62 -56t-80.5 -17t-80.5 18t-62 56t-24.5 90.5zM641 1772q0 52 25 90.5t62 56t81 17.5t81 -17.5t62 -56t25 -90.5q0 -53 -25 -91.5t-62 -56t-81 -17t-81 18t-62 56t-25 90.5z" />
<glyph unicode="&#xdd;" horiz-adv-x="1114" d="M6 1511h400l-19 -18l90 -231l82 -291l84 297l88 225l-18 18h399l-18 -18l-369 -905v-570l18 -18h-368l20 18v570l-370 905zM397 1608v12l140 305l284 -67v-15l-149 -235h-275z" />
<glyph unicode="&#xde;" horiz-adv-x="1034" d="M86 0l18 18v1477l-18 18h367l-19 -18v-180h131q84 0 153.5 -22t124 -67t85 -122.5t30.5 -181.5v-316q0 -184 -111.5 -285.5t-281.5 -101.5h-131v-201l19 -18h-367zM434 526h131q26 0 45 19t19 47v352q0 26 -19 45t-45 19h-131v-482z" />
<glyph unicode="&#xdf;" horiz-adv-x="1026" d="M82 0l18 18v1100q0 192 118.5 299t299.5 107q190 0 306 -102.5t116 -278.5q0 -152 -115 -254q-15 -12 -16 -29t18 -29q115 -63 115 -231v-207q0 -199 -95.5 -296t-289.5 -97h-27v313q41 0 61.5 18t20.5 60v279q0 38 -39.5 96.5t-37.5 101.5q0 48 22 90t44 79.5t22 76.5 q0 44 -28.5 68.5t-63.5 25t-66 -22.5t-35 -65v-1120h-348z" />
<glyph unicode="&#xe0;" horiz-adv-x="1028" d="M61 381q0 82 26 152t76 125t132.5 86.5t187.5 31.5h117q0 54 -21.5 72t-68.5 18h-307l-25 -16v340l29 -12h330q179 0 284 -94.5t105 -290.5v-791h-25l-205 129q-30 -43 -70 -72t-80.5 -42t-71 -18t-58.5 -5q-166 0 -260.5 111t-94.5 276zM246 1509v15l284 67l140 -305 v-12h-275zM365 410q0 -31 14 -54.5t51 -37t100 9.5l82 55v121h-131q-49 0 -82.5 -26t-33.5 -68z" />
<glyph unicode="&#xe1;" horiz-adv-x="1028" d="M61 381q0 82 26 152t76 125t132.5 86.5t187.5 31.5h117q0 54 -21.5 72t-68.5 18h-307l-25 -16v340l29 -12h330q179 0 284 -94.5t105 -290.5v-791h-25l-205 129q-30 -43 -70 -72t-80.5 -42t-71 -18t-58.5 -5q-166 0 -260.5 111t-94.5 276zM352 1272v12l140 305l284 -67 v-15l-149 -235h-275zM365 410q0 -31 14 -54.5t51 -37t100 9.5l82 55v121h-131q-49 0 -82.5 -26t-33.5 -68z" />
<glyph unicode="&#xe2;" horiz-adv-x="1028" d="M61 381q0 82 26 152t76 125t132.5 86.5t187.5 31.5h117q0 54 -21.5 72t-68.5 18h-307l-25 -16v340l29 -12h330q179 0 284 -94.5t105 -290.5v-791h-25l-205 129q-30 -43 -70 -72t-80.5 -42t-71 -18t-58.5 -5q-166 0 -260.5 111t-94.5 276zM164 1276v12l225 277h240 l223 -277v-12h-264l-78 90l-74 -90h-272zM365 410q0 -31 14 -54.5t51 -37t100 9.5l82 55v121h-131q-49 0 -82.5 -26t-33.5 -68z" />
<glyph unicode="&#xe3;" horiz-adv-x="1028" d="M61 381q0 82 26 152t76 125t132.5 86.5t187.5 31.5h117q0 54 -21.5 72t-68.5 18h-307l-25 -16v340l29 -12h330q179 0 284 -94.5t105 -290.5v-791h-25l-205 129q-30 -43 -70 -72t-80.5 -42t-71 -18t-58.5 -5q-166 0 -260.5 111t-94.5 276zM203 1337q22 149 107 206.5 t218 4.5q5 -2 23.5 -9.5t27 -10t24.5 -7t25 -2.5t20 7t18 17.5t10 31.5l153 -66q-11 -136 -98 -201t-205 -18q-6 2 -22.5 9.5t-25 10.5t-25 8t-26 6t-23 -0.5t-21.5 -7.5t-16 -17.5t-13 -28.5q-22 9 -74 33t-77 34zM365 410q0 -31 14 -54.5t51 -37t100 9.5l82 55v121h-131 q-49 0 -82.5 -26t-33.5 -68z" />
<glyph unicode="&#xe4;" horiz-adv-x="1028" d="M61 381q0 82 26 152t76 125t132.5 86.5t187.5 31.5h117q0 54 -21.5 72t-68.5 18h-307l-25 -16v340l29 -12h330q179 0 284 -94.5t105 -290.5v-791h-25l-205 129q-30 -43 -70 -72t-80.5 -42t-71 -18t-58.5 -5q-166 0 -260.5 111t-94.5 276zM174 1427q0 42 17.5 75t45 50.5 t60.5 25.5t66.5 0t61 -25.5t45 -50.5t17.5 -75q0 -43 -17.5 -76t-45 -50.5t-60.5 -25.5t-66.5 0t-61 25.5t-45 50.5t-17.5 76zM365 410q0 -31 14 -54.5t51 -37t100 9.5l82 55v121h-131q-49 0 -82.5 -26t-33.5 -68zM561 1427q0 49 23 85t58 52t75.5 16t75.5 -16t58 -52 t23 -85t-23 -85.5t-58 -53t-75.5 -16.5t-75.5 16.5t-58 53t-23 85.5z" />
<glyph unicode="&#xe5;" horiz-adv-x="1028" d="M61 381q0 82 26 152t76 125t132.5 86.5t187.5 31.5h117q0 54 -21.5 72t-68.5 18h-307l-25 -16v340l29 -12h330q179 0 284 -94.5t105 -290.5v-791h-25l-205 129q-30 -43 -70 -72t-80.5 -42t-71 -18t-58.5 -5q-166 0 -260.5 111t-94.5 276zM274 1466q0 62 28.5 110t73.5 73 t100 36.5t110 0t100 -36.5t73.5 -73t28.5 -110q0 -55 -22 -99t-58 -71.5t-82.5 -42t-94.5 -14.5t-94.5 15t-82.5 42t-58 71.5t-22 98.5zM365 410q0 -31 14 -54.5t51 -37t100 9.5l82 55v121h-131q-49 0 -82.5 -26t-33.5 -68zM465 1466q0 -36 33.5 -50.5t66.5 0t33 50.5 t-33 50.5t-66.5 0t-33.5 -50.5z" />
<glyph unicode="&#xe6;" horiz-adv-x="1486" d="M61 381q0 82 26 152t76 125t132.5 86.5t187.5 31.5h133q0 52 -28 71t-78 19h-307l-25 -16v340l29 -12h330q63 0 122.5 -27t98.5 -68q38 46 106 73.5t152 27.5q193 0 297 -95.5t104 -283.5q0 -42 -8.5 -79.5t-21.5 -66.5t-37 -56t-45.5 -46t-57.5 -38.5t-62 -31.5 t-70 -27.5t-70.5 -23.5t-75 -22.5t-72.5 -22.5v-10q4 -40 38.5 -63t75.5 -23t75 24t36 66h297q0 -391 -407 -391q-207 0 -310 151q-71 -92 -138 -121.5t-148 -29.5q-166 0 -260.5 111t-94.5 276zM365 410q0 -31 14 -54.5t51 -37t100 9.5l88 55v121h-137q-49 0 -82.5 -26 t-33.5 -68zM895 692q92 16 140.5 33t63.5 33.5t15 42.5q0 36 -33 56.5t-73.5 21.5t-75 -17t-37.5 -49v-20v-101z" />
<glyph unicode="&#xe7;" horiz-adv-x="835" d="M90 375v430q0 163 109.5 270t273.5 107h229l29 14v-342l-26 12h-226q-26 0 -44.5 -18.5t-18.5 -46.5v-424q0 -26 18.5 -45t44.5 -19h246l27 13v-340l-29 14h-121l-18 -78q48 -8 79 -32t41 -56.5t9.5 -67t-11.5 -69.5q-20 -64 -71 -100t-114 -41.5t-129.5 9.5t-121.5 48 l19 176q24 -17 56 -25.5t59 -2t34 31.5q11 37 -13.5 56.5t-62.5 19.5l37 135q-305 39 -305 371z" />
<glyph unicode="&#xe8;" horiz-adv-x="1003" d="M86 389v395q0 85 22.5 154.5t70.5 126t134 88t203 31.5q193 0 297.5 -95.5t104.5 -283.5q0 -75 -28.5 -135t-60.5 -95t-106.5 -71t-113.5 -49t-135 -42q-16 -5 -24.5 -7.5t-22 -7t-24.5 -7.5q0 -43 33.5 -68t74 -26.5t75.5 22t37 66.5h297q0 -391 -408 -391 q-200 0 -313 104.5t-113 290.5zM246 1495v14l284 68l140 -305v-12h-275zM403 692q91 16 138 33t60 33.5t13 42.5q0 30 -21.5 50t-53 24.5t-62.5 0t-52.5 -23t-21.5 -45.5v-115z" />
<glyph unicode="&#xe9;" horiz-adv-x="1003" d="M86 389v395q0 85 22.5 154.5t70.5 126t134 88t203 31.5q193 0 297.5 -95.5t104.5 -283.5q0 -75 -28.5 -135t-60.5 -95t-106.5 -71t-113.5 -49t-135 -42q-16 -5 -24.5 -7.5t-22 -7t-24.5 -7.5q0 -43 33.5 -68t74 -26.5t75.5 22t37 66.5h297q0 -391 -408 -391 q-200 0 -313 104.5t-113 290.5zM350 1257v13l139 305l285 -68v-14l-149 -236h-275zM403 692q91 16 138 33t60 33.5t13 42.5q0 30 -21.5 50t-53 24.5t-62.5 0t-52.5 -23t-21.5 -45.5v-115z" />
<glyph unicode="&#xea;" horiz-adv-x="1003" d="M86 389v395q0 85 22.5 154.5t70.5 126t134 88t203 31.5q193 0 297.5 -95.5t104.5 -283.5q0 -75 -28.5 -135t-60.5 -95t-106.5 -71t-113.5 -49t-135 -42q-16 -5 -24.5 -7.5t-22 -7t-24.5 -7.5q0 -43 33.5 -68t74 -26.5t75.5 22t37 66.5h297q0 -391 -408 -391 q-200 0 -313 104.5t-113 290.5zM168 1262v12l221 276h236l221 -276v-12h-262l-76 90l-74 -90h-266zM403 692q91 16 138 33t60 33.5t13 42.5q0 30 -21.5 50t-53 24.5t-62.5 0t-52.5 -23t-21.5 -45.5v-115z" />
<glyph unicode="&#xeb;" horiz-adv-x="1003" d="M86 389v395q0 85 22.5 154.5t70.5 126t134 88t203 31.5q193 0 297.5 -95.5t104.5 -283.5q0 -75 -28.5 -135t-60.5 -95t-106.5 -71t-113.5 -49t-135 -42q-16 -5 -24.5 -7.5t-22 -7t-24.5 -7.5q0 -43 33.5 -68t74 -26.5t75.5 22t37 66.5h297q0 -391 -408 -391 q-200 0 -313 104.5t-113 290.5zM143 1401q0 49 23.5 85t58.5 52t76 16t76 -16t58.5 -52t23.5 -85q0 -50 -23.5 -86.5t-58.5 -53t-76 -16t-76 17t-58.5 53t-23.5 85.5zM403 692q91 16 138 33t60 33.5t13 42.5q0 30 -21.5 50t-53 24.5t-62.5 0t-52.5 -23t-21.5 -45.5v-115z M557 1401q0 42 17.5 75t46 50.5t62.5 25.5t68 0t62.5 -25.5t46 -50.5t17.5 -75q0 -43 -17.5 -76.5t-46 -51t-62.5 -25.5t-68 0.5t-62.5 25.5t-46 50.5t-17.5 76.5z" />
<glyph unicode="&#xec;" horiz-adv-x="536" d="M6 1491v14l285 68l139 -305v-13h-274zM82 0l18 18v1108l-18 19h371l-19 -19v-1108l19 -18h-371z" />
<glyph unicode="&#xed;" horiz-adv-x="536" d="M82 0l18 18v1108l-18 19h371l-19 -19v-1108l19 -18h-371zM100 1266v12l140 305l284 -67v-15l-149 -235h-275z" />
<glyph unicode="&#xee;" horiz-adv-x="536" d="M-49 1257v17l209 285h223l209 -285v-17h-246l-72 97l-69 -97h-254zM82 0l18 18v1108l-18 19h371l-19 -19v-1108l19 -18h-371z" />
<glyph unicode="&#xef;" horiz-adv-x="598" d="M-20 1407q0 48 22.5 83.5t57 51t74 15.5t74 -15.5t57 -51t22.5 -83.5q0 -42 -17 -75t-44 -50t-59.5 -25t-65.5 0t-60 25t-44 50t-17 75zM115 0l18 18v1108l-18 19h370l-18 -19v-1108l18 -18h-370zM340 1407q0 57 32 96.5t77 48.5t90.5 0t77.5 -48.5t32 -96.5 q0 -42 -17 -75t-44.5 -50t-60.5 -25t-65.5 0t-60 25t-44.5 50t-17 75z" />
<glyph unicode="&#xf0;" horiz-adv-x="980" d="M80 387v348q0 162 100.5 258t253.5 101l-217 301h-24l276 200v-26l61 -86l82 61l107 -149l-84 -64l199 -295q63 -88 83.5 -155.5t20.5 -145.5v-348q0 -186 -118.5 -291.5t-307.5 -105.5q-192 0 -312 105.5t-120 291.5zM401 387q0 -53 52.5 -75.5t106 -0.5t56.5 76v352 q0 39 -33.5 61t-74 22t-74 -22t-33.5 -61v-352z" />
<glyph unicode="&#xf1;" d="M82 0l18 18v1164h17l147 -82q63 43 118.5 62.5t143.5 19.5q194 0 306 -94.5t112 -301.5v-768l21 -18h-367l20 16v783q0 43 -47.5 61t-95 0t-47.5 -61v-781l18 -18h-364zM211 1343q22 149 107.5 206.5t218.5 4.5q5 -2 23.5 -9.5t27 -10t24.5 -7t25 -2.5t20 7t17.5 17.5 t9.5 31.5l154 -65q-11 -136 -98 -201.5t-205 -18.5q-5 2 -22.5 9.5t-25.5 10.5t-24.5 8t-26 6t-23 -0.5t-22 -7.5t-16.5 -17.5t-13 -28.5q-22 9 -74 33t-77 34z" />
<glyph unicode="&#xf2;" horiz-adv-x="1017" d="M86 387v406q0 188 116.5 291.5t307.5 103.5t307.5 -103.5t116.5 -291.5v-406q0 -187 -116.5 -292t-305.5 -105q-192 0 -309 105t-117 292zM262 1511v15l285 67l139 -305v-12h-274zM412 387q0 -29 20 -48.5t48.5 -24t57 0t49.5 24t23 48.5v410q0 47 -49.5 66.5t-99 0 t-49.5 -66.5v-410z" />
<glyph unicode="&#xf3;" horiz-adv-x="1017" d="M86 387v406q0 188 116.5 291.5t307.5 103.5t307.5 -103.5t116.5 -291.5v-406q0 -187 -116.5 -292t-305.5 -105q-192 0 -309 105t-117 292zM348 1274v12l139 305l285 -67v-15l-149 -235h-275zM412 387q0 -29 20 -48.5t48.5 -24t57 0t49.5 24t23 48.5v410q0 47 -49.5 66.5 t-99 0t-49.5 -66.5v-410z" />
<glyph unicode="&#xf4;" horiz-adv-x="1017" d="M86 387v406q0 188 116.5 291.5t307.5 103.5t307.5 -103.5t116.5 -291.5v-406q0 -187 -116.5 -292t-305.5 -105q-192 0 -309 105t-117 292zM156 1268v16l231 281h248l231 -281v-16h-274l-78 94l-78 -94h-280zM412 387q0 -29 20 -48.5t48.5 -24t57 0t49.5 24t23 48.5v410 q0 47 -49.5 66.5t-99 0t-49.5 -66.5v-410z" />
<glyph unicode="&#xf5;" horiz-adv-x="1017" d="M86 387v406q0 188 116.5 291.5t307.5 103.5t307.5 -103.5t116.5 -291.5v-406q0 -187 -116.5 -292t-305.5 -105q-192 0 -309 105t-117 292zM205 1335q22 149 107 206.5t218 4.5q5 -2 23.5 -9.5t27 -10t24.5 -7t25 -2.5t20 7t18 17.5t10 31.5l153 -66q-11 -136 -98 -201 t-205 -18q-6 2 -22.5 9.5t-25 10.5t-25 8t-26 6t-23 -0.5t-21.5 -7.5t-16 -17.5t-13 -28.5q-22 9 -74 33t-77 34zM412 387q0 -29 20 -48.5t48.5 -24t57 0t49.5 24t23 48.5v410q0 47 -49.5 66.5t-99 0t-49.5 -66.5v-410z" />
<glyph unicode="&#xf6;" horiz-adv-x="1017" d="M86 387v406q0 188 116.5 291.5t307.5 103.5t307.5 -103.5t116.5 -291.5v-406q0 -187 -116.5 -292t-305.5 -105q-192 0 -309 105t-117 292zM141 1399q0 49 23.5 85t58.5 52t76 16t76 -16t58.5 -52t23.5 -85q0 -50 -23.5 -86.5t-58.5 -53t-76 -16t-76 17t-58.5 53 t-23.5 85.5zM412 387q0 -29 20 -48.5t48.5 -24t57 0t49.5 24t23 48.5v410q0 47 -49.5 66.5t-99 0t-49.5 -66.5v-410zM573 1399q0 49 23.5 85t58.5 52t76 16t76 -16t58.5 -52t23.5 -85q0 -50 -23.5 -86.5t-58.5 -53t-76 -16t-76 17t-58.5 53t-23.5 85.5z" />
<glyph unicode="&#xf8;" horiz-adv-x="1017" d="M84 -76l96 195q-94 105 -94 268v406q0 188 116.5 291.5t307.5 103.5q99 0 184 -31l47 96h203l-98 -198q88 -106 88 -262v-406q0 -187 -116.5 -292t-305.5 -105q-100 0 -182 28l-47 -94h-199zM401 565l154 312q-52 19 -103 -3t-51 -77v-232zM469 301q50 -15 96 8.5 t49 77.5v203z" />
<glyph unicode="&#xf9;" d="M80 1180h366l-20 -17v-782q0 -43 47.5 -61t95 0t47.5 61v780l-18 19h365l-19 -19v-1163h-16l-148 82q-63 -43 -118.5 -62.5t-143.5 -19.5q-94 0 -168 21.5t-131 66.5t-88 123t-31 184v768zM262 1511v15l285 67l139 -305v-12h-274z" />
<glyph unicode="&#xfa;" d="M80 1180h366l-20 -17v-782q0 -43 47.5 -61t95 0t47.5 61v780l-18 19h365l-19 -19v-1163h-16l-148 82q-63 -43 -118.5 -62.5t-143.5 -19.5q-94 0 -168 21.5t-131 66.5t-88 123t-31 184v768zM373 1278v12l139 305l285 -67v-15l-150 -235h-274z" />
<glyph unicode="&#xfb;" d="M80 1180h366l-20 -17v-782q0 -43 47.5 -61t95 0t47.5 61v780l-18 19h365l-19 -19v-1163h-16l-148 82q-63 -43 -118.5 -62.5t-143.5 -19.5q-94 0 -168 21.5t-131 66.5t-88 123t-31 184v768zM147 1282v14l246 277h262l246 -277v-14h-291l-84 92l-82 -92h-297z" />
<glyph unicode="&#xfc;" d="M80 1180h366l-20 -17v-782q0 -43 47.5 -61t95 0t47.5 61v780l-18 19h365l-19 -19v-1163h-16l-148 82q-63 -43 -118.5 -62.5t-143.5 -19.5q-94 0 -168 21.5t-131 66.5t-88 123t-31 184v768zM154 1423q0 43 17.5 77t45.5 51t61.5 25.5t67.5 0t62 -25.5t45.5 -51t17.5 -77 q0 -60 -32.5 -101t-79.5 -50.5t-93.5 0.5t-79 50.5t-32.5 100.5zM592 1423q0 50 23.5 86.5t59 53t77 16.5t77 -16.5t59 -53t23.5 -86.5q0 -60 -33 -101t-79.5 -50.5t-93.5 0.5t-80 50.5t-33 100.5z" />
<glyph unicode="&#xfd;" horiz-adv-x="1056" d="M86 1180h365l-19 -17v-786q0 -26 19 -45t47 -19h131v848l-19 19h363l-21 -17v-1439q-134 -234 -381 -234q-128 0 -236 37.5t-229 144.5l166 244q64 -53 124.5 -80.5t105.5 -28.5t75 6t50 21l2 166l-131 -2q-392 0 -392 389v774zM381 1284v12l141 314l289 -70v-14 l-152 -242h-278z" />
<glyph unicode="&#xfe;" d="M82 -502l22 27v2005l-22 26h373l-23 -26v-352q40 4 92 4q98 0 171.5 -18.5t132.5 -61.5t89.5 -121t30.5 -190v-398q0 -112 -30.5 -190t-89.5 -121t-132.5 -61.5t-171.5 -18.5q-52 0 -92 4v-481l23 -27h-373zM432 317h123q28 0 47 19t19 45v422q0 26 -19 44.5t-47 18.5 h-123v-549z" />
<glyph unicode="&#xff;" horiz-adv-x="1091" d="M86 1180h365l-19 -17v-786q0 -26 19 -45t47 -19h131v848l-19 19h363l-21 -17v-1439q-134 -234 -381 -234q-128 0 -236 37.5t-229 144.5l166 244q64 -53 124.5 -80.5t105.5 -28.5t75 6t50 21l2 166l-131 -2q-392 0 -392 389v774zM141 1440q0 52 24.5 90.5t62 56t80.5 17.5 t80.5 -17.5t62 -56t24.5 -90.5q0 -45 -18.5 -81t-48 -54t-65 -26.5t-71 0t-65 27t-48 54t-18.5 80.5zM600 1440q0 52 25 90.5t62 56t81 17.5t81 -17.5t62 -56t25 -90.5q0 -53 -25 -91.5t-62 -56t-81 -17t-81 18t-62 56t-25 90.5z" />
<glyph unicode="&#x152;" horiz-adv-x="1437" d="M86 389v739q2 79 27.5 144.5t67.5 110t97.5 76t118 45t128.5 13t130 -15.5v10h652l16 19v-367l-18 19h-347v-260h318l18 18v-369l-18 21h-318v-262h377l19 18v-366l-19 18h-698l4 4q-96 -16 -194 1.5t-178.5 63.5t-131.5 130t-51 190zM416 389q0 -50 43 -79.5t100 -28 t96 31.5v873q-34 29 -91.5 32.5t-102.5 -21.5t-45 -69v-739z" />
<glyph unicode="&#x153;" horiz-adv-x="1480" d="M86 387v406q0 112 53.5 202t138.5 138.5t183 50.5q180 4 276 -115q125 113 297 113q155 0 257 -103t102 -274q0 -42 -8.5 -79.5t-21 -66.5t-36.5 -56t-44.5 -46t-56.5 -38.5t-61 -31.5t-69 -27.5t-69.5 -23.5t-75 -23t-72.5 -22v-4q2 -55 55.5 -79t107 -2t56.5 79h297 q4 -92 -22.5 -167.5t-75 -123.5t-112.5 -74t-136 -26q-213 0 -310 115q-96 -119 -286 -119q-166 0 -266.5 112t-100.5 285zM412 387q0 -45 43.5 -65.5t91.5 -5.5t59 57v16v395v27q-9 41 -57 55.5t-92.5 -5.5t-44.5 -64v-410zM879 692q91 16 138 33t60 33.5t13 42.5 q0 30 -21.5 50t-53 24.5t-62.5 0t-52.5 -23t-21.5 -45.5v-115z" />
<glyph unicode="&#x178;" horiz-adv-x="1114" d="M6 1511h400l-19 -18l90 -231l82 -291l84 297l88 225l-18 18h399l-18 -18l-369 -905v-570l18 -18h-368l20 18v570l-370 905zM164 1767q0 52 24.5 90.5t62 56t80.5 17.5t80.5 -17.5t62 -56t24.5 -90.5q0 -45 -18.5 -81t-48 -54t-65 -26.5t-71 0t-65 27t-48 54t-18.5 80.5z M623 1767q0 52 25 90.5t62 56t80.5 17.5t80.5 -17.5t62 -56t25 -90.5q0 -53 -25 -91.5t-62 -56t-80.5 -17t-80.5 18t-62 56t-25 90.5z" />
<glyph unicode="&#x2c6;" horiz-adv-x="878" d="M63 1303v14l246 276h262l246 -276v-14h-291l-84 92l-82 -92h-297z" />
<glyph unicode="&#x2dc;" horiz-adv-x="813" d="M90 1307q22 149 107.5 206.5t218.5 4.5q6 -2 20.5 -8t23 -9.5t22 -7.5t22 -4.5t19.5 1.5t18 8t13 17.5t9 28.5l154 -65q-11 -136 -98 -201t-205 -18q-2 1 -25 11t-30.5 12t-27.5 8t-29.5 3.5t-23.5 -6.5t-22.5 -17t-13.5 -32q-22 9 -74.5 33.5t-77.5 34.5z" />
<glyph unicode="&#x2000;" horiz-adv-x="975" />
<glyph unicode="&#x2001;" horiz-adv-x="1950" />
<glyph unicode="&#x2002;" horiz-adv-x="975" />
<glyph unicode="&#x2003;" horiz-adv-x="1950" />
<glyph unicode="&#x2004;" horiz-adv-x="650" />
<glyph unicode="&#x2005;" horiz-adv-x="487" />
<glyph unicode="&#x2006;" horiz-adv-x="325" />
<glyph unicode="&#x2007;" horiz-adv-x="325" />
<glyph unicode="&#x2008;" horiz-adv-x="243" />
<glyph unicode="&#x2009;" horiz-adv-x="390" />
<glyph unicode="&#x200a;" horiz-adv-x="108" />
<glyph unicode="&#x2010;" horiz-adv-x="727" d="M43 475v307h594v-307h-594z" />
<glyph unicode="&#x2011;" horiz-adv-x="727" d="M43 475v307h594v-307h-594z" />
<glyph unicode="&#x2012;" horiz-adv-x="727" d="M43 475v307h594v-307h-594z" />
<glyph unicode="&#x2013;" horiz-adv-x="1157" d="M43 475v307h1024v-307h-1024z" />
<glyph unicode="&#x2014;" horiz-adv-x="2181" d="M43 475v307h2048v-307h-2048z" />
<glyph unicode="&#x202f;" horiz-adv-x="390" />
<glyph unicode="&#x205f;" horiz-adv-x="487" />
<glyph unicode="&#xe000;" horiz-adv-x="1177" d="M0 0v1178h1178v-1178h-1178z" />
</font>
</defs>
</svg>
